0
SECTION
2
HEADER
9
$INSUNITS
70
4
9
$ACADVER
1
AC1014
9
$HANDSEED
5
FFFF
0
ENDSEC
0
SECTION
2
TABLES
0
TABLE
2
VPORT
5
8
100
AcDbSymbolTable
0
ENDTAB
0
TABLE
2
LTYPE
5
5
100
AcDbSymbolTable
0
LTYPE
5
14
100
AcDbSymbolTableRecord
100
AcDbLinetypeTableRecord
2
BYBLOCK
70
0
0
LTYPE
5
15
100
AcDbSymbolTableRecord
100
AcDbLinetypeTableRecord
2
BYLAYER
70
0
0
ENDTAB
0
TABLE
2
LAYER
5
2
100
AcDbSymbolTable
70
2
0
LAYER
5
50
100
AcDbSymbolTableRecord
100
AcDbLayerTableRecord
2
0
70
0
6
CONTINUOUS
0
ENDTAB
0
TABLE
2
STYLE
5
3
100
AcDbSymbolTable
70
1
0
STYLE
5
11
100
AcDbSymbolTableRecord
100
AcDbTextStyleTableRecord
2
STANDARD
70
0
0
ENDTAB
0
TABLE
2
VIEW
5
6
100
AcDbSymbolTable
70
0
0
ENDTAB
0
TABLE
2
UCS
5
7
100
AcDbSymbolTable
70
0
0
ENDTAB
0
TABLE
2
APPID
5
9
100
AcDbSymbolTable
70
2
0
APPID
5
12
100
AcDbSymbolTableRecord
100
AcDbRegAppTableRecord
2
ACAD
70
0
0
ENDTAB
0
TABLE
2
DIMSTYLE
5
A
100
AcDbSymbolTable
70
1
0
ENDTAB
0
TABLE
2
BLOCK_RECORD
5
1
100
AcDbSymbolTable
70
1
0
BLOCK_RECORD
5
1F
100
AcDbSymbolTableRecord
100
AcDbBlockTableRecord
2
*MODEL_SPACE
0
BLOCK_RECORD
5
1B
100
AcDbSymbolTableRecord
100
AcDbBlockTableRecord
2
*PAPER_SPACE
0
ENDTAB
0
ENDSEC
0
SECTION
2
BLOCKS
0
BLOCK
5
20
100
AcDbEntity
100
AcDbBlockBegin
2
*MODEL_SPACE
0
ENDBLK
5
21
100
AcDbEntity
100
AcDbBlockEnd
0
BLOCK
5
1C
100
AcDbEntity
100
AcDbBlockBegin
2
*PAPER_SPACE
0
ENDBLK
5
1D
100
AcDbEntity
100
AcDbBlockEnd
0
ENDSEC
0
SECTION
2
ENTITIES
0
CIRCLE
5
100
100
AcDbEntity
8
0
100
AcDbCircle
10
-27.099999999999994
20
9.100000000000005
30
-2.8241497752154048e-15
40
1.1750000000000003
210
-1.0421216882713673e-16
220
0
230
-1
0
CIRCLE
5
101
100
AcDbEntity
8
0
100
AcDbCircle
10
-27.099999999999994
20
9.100000000000005
30
3.3403328955452212e-31
40
3.0000000000000009
210
1.2325951644078309e-32
220
0
230
-1
0
LINE
5
102
100
AcDbEntity
8
0
100
AcDbLine
10
-43.122126732447228
20
-9.75
30
1.7855669617724093e-16
11
-43.122126732447228
21
9.5000000000000071
31
-3.4961295365006428e-16
0
LINE
5
103
100
AcDbEntity
8
0
100
AcDbLine
10
-43.122126732447228
20
10.400000000000002
30
-3.7655481613533768e-16
11
-43.122126732447235
21
14.540593150369908
31
2.0550310991321652e-16
0
LINE
5
104
100
AcDbEntity
8
0
100
AcDbLine
10
-43.122126732447235
20
14.540593150369908
30
2.0550310991321652e-16
11
42.965310692942296
21
14.54059315036991
31
-8.9574365869011142e-17
0
LINE
5
105
100
AcDbEntity
8
0
100
AcDbLine
10
42.965310692942296
20
14.54059315036991
30
-8.9574365869011142e-17
11
42.965310692942296
21
10.375000000000004
31
3.4501597690255981e-16
0
LINE
5
106
100
AcDbEntity
8
0
100
AcDbLine
10
42.965310692942296
20
9.4750000000000014
30
-1.8833429795007863e-16
11
42.965310692942296
21
-9.4749999999999979
31
-1.5038945270088162e-16
0
LINE
5
107
100
AcDbEntity
8
0
100
AcDbLine
10
42.965310692942296
20
-10.274999999999997
30
3.6677721436250013e-16
11
42.965310692942296
21
-14.640609092976629
31
3.0827364431879466e-16
0
LINE
5
108
100
AcDbEntity
8
0
100
AcDbLine
10
42.965310692942296
20
-14.640609092976629
30
3.0827364431879466e-16
11
-43.122126732447235
21
-14.640609092976627
31
-4.6553714644356713e-16
0
LINE
5
109
100
AcDbEntity
8
0
100
AcDbLine
10
-43.122126732447235
20
-14.640609092976627
30
-4.6553714644356713e-16
11
-43.122126732447228
21
-10.550000000000004
31
1.9632118752895254e-16
0
LWPOLYLINE
5
110
100
AcDbEntity
8
0
100
AcDbPolyline
90
20
70
1
43
0.0
10
30.349716596028365
20
-17.541071428571435
10
30.349716596028365
20
-15.490744605133724
10
22.949716596028267
20
-15.490744605133726
10
22.949716596028264
20
-17.541071428571435
10
-23.050283403971644
20
-17.541071428571435
10
-23.050283403971648
20
-15.490744605133726
10
-30.450283403971742
20
-15.490744605133724
10
-30.450283403971742
20
-17.541071428571435
10
-44.972192412390953
20
-17.541071428571435
10
-44.972192412390974
20
17.541071428571435
10
-30.450283403971689
20
17.541071428571431
10
-30.450283403971696
20
15.440736633830365
10
-23.050283403971687
20
15.440736633830364
10
-23.050283403971687
20
17.541071428571428
10
22.94971659602831
20
17.541071428571431
10
22.949716596028313
20
15.440736633830367
10
30.349716596028316
20
15.440736633830365
10
30.349716596028312
20
17.541071428571431
10
44.915943180829387
20
17.541071428571435
10
44.915943180829395
20
-17.541071428571435
0
CIRCLE
5
111
100
AcDbEntity
8
0
100
AcDbCircle
10
27.125000000000018
20
-9.2250000000000032
30
-5.0391399443938417e-16
40
1.1750000000000003
210
-1.0421216882713673e-16
220
-1.9949819906712861e-48
230
-1
0
CIRCLE
5
112
100
AcDbEntity
8
0
100
AcDbCircle
10
-27.125000000000018
20
-9.2250000000000032
30
3.3306690738754696e-15
40
2.2250000000000001
210
1.0421216882713673e-16
220
1.9949819906712861e-48
230
1
0
CIRCLE
5
113
100
AcDbEntity
8
0
100
AcDbCircle
10
-27.099999999999994
20
9.1000000000000032
30
5.0651929866006495e-16
40
1.1750000000000003
210
-1.0421216882713673e-16
220
-1.9949819906712861e-48
230
-1
0
CIRCLE
5
114
100
AcDbEntity
8
0
100
AcDbCircle
10
27.099999999999994
20
9.1000000000000032
30
-3.3306690738754696e-15
40
3.0000000000000009
210
1.0421216882713673e-16
220
1.9949819906712861e-48
230
1
0
LINE
5
115
100
AcDbEntity
8
0
100
AcDbLine
10
42.965310692942296
20
10.375000000000004
30
3.4501597690255981e-16
11
42.965310692942296
21
9.4750000000000014
31
-1.8833429795007863e-16
0
LINE
5
116
100
AcDbEntity
8
0
100
AcDbLine
10
42.965310692942296
20
-10.274999999999997
30
3.6677721436250013e-16
11
42.965310692942296
21
-9.4749999999999979
31
-1.5038945270088162e-16
0
LINE
5
117
100
AcDbEntity
8
0
100
AcDbLine
10
-43.122126732447228
20
-10.550000000000004
30
1.9632118752895254e-16
11
-43.122126732447228
21
-9.75
31
1.7855669617724093e-16
0
LINE
5
118
100
AcDbEntity
8
0
100
AcDbLine
10
-43.122126732447228
20
9.5000000000000071
30
-3.4961295365006428e-16
11
-43.122126732447228
21
10.400000000000002
31
-3.7655481613533768e-16
0
LWPOLYLINE
5
119
100
AcDbEntity
8
0
100
AcDbPolyline
90
12
70
1
43
0.0
10
-42.622126732447242
20
14.040593150369906
10
-42.622126732447228
20
10.400000000000002
10
-42.622126732447228
20
9.5000000000000071
10
-42.622126732447228
20
-9.75
10
-42.622126732447228
20
-10.550000000000004
10
-42.622126732447242
20
-14.140609092976625
10
42.465310692942296
20
-14.140609092976629
10
42.465310692942296
20
-10.274999999999997
10
42.465310692942296
20
-9.4749999999999979
10
42.465310692942296
20
9.4750000000000014
10
42.465310692942296
20
10.375000000000004
10
42.465310692942296
20
14.040593150369908
0
ELLIPSE
5
120
100
AcDbEntity
8
0
100
AcDbEllipse
10
-37.722052433579833
20
-11.500000000000119
30
5.5511151231257827e-16
11
-5.1736392947532285e-13
21
2.0500000000000007
31
0.0
40
0.99982371476912857
41
4.9337034227322203
42
6.0618708648315449
0
LINE
5
121
100
AcDbEntity
8
0
100
AcDbLine
10
-37.272131761933743
20
-9.5000000000001155
30
5.5523498865860597e-16
11
-37.272131761933721
21
-9.1934874810659544
31
1.1102230246251565e-15
0
ELLIPSE
5
122
100
AcDbEntity
8
0
100
AcDbEllipse
10
-37.722052433579833
20
-11.500000000000119
30
5.5511151231257827e-16
11
-2.0969337377607644e-13
21
2.3500000000000005
31
0.0
40
0.99982371476912901
41
4.9050683453893527
42
6.0905059421747429
0
LINE
5
123
100
AcDbEntity
8
0
100
AcDbLine
10
-35.415946518737584
20
-11.050000000000118
30
5.5301455181760135e-16
11
-35.722405004041576
21
-11.050000000000137
31
5.5515502774154846e-16
0
ELLIPSE
5
124
100
AcDbEntity
8
0
100
AcDbEllipse
10
-37.722052433579833
20
-11.500000000000119
30
5.5511151231257827e-16
11
8.9511731360403246e-14
21
-2.0500000000000007
31
0.0
40
0.99982371476912923
41
0.22131444234772857
42
1.3494818844470511
0
LINE
5
125
100
AcDbEntity
8
0
100
AcDbLine
10
-35.722405004041583
20
-11.950000000000138
30
5.5510114132308203e-16
11
-35.415946518737584
21
-11.950000000000118
31
5.5461667190565211e-16
0
ELLIPSE
5
126
100
AcDbEntity
8
0
100
AcDbEllipse
10
-37.722052433579833
20
-11.500000000000119
30
5.5511151231257827e-16
11
3.6894098887074723e-13
21
-2.3500000000000005
31
0.0
40
0.99982371476912912
41
0.19267936500459168
42
1.3781169617899867
0
LINE
5
127
100
AcDbEntity
8
0
100
AcDbLine
10
-37.272131761933728
20
-13.80651251893428
30
5.5478977657936435e-16
11
-37.272131761933764
21
-13.500000000000128
31
5.5499549346543398e-16
0
ELLIPSE
5
128
100
AcDbEntity
8
0
100
AcDbEllipse
10
-37.722052433579833
20
-4.0000000000001146
30
-2.2204460492503131e-15
11
-5.1736392947532285e-13
21
2.0500000000000007
31
0.0
40
0.99982371476912857
41
4.9337034227322203
42
6.0618708648315476
0
LINE
5
129
100
AcDbEntity
8
0
100
AcDbLine
10
-37.272131761933743
20
-2.0000000000001119
30
-2.2203225729042854e-15
11
-37.272131761933728
21
-1.6934874810659561
31
-2.2204460492503131e-15
0
ELLIPSE
5
130
100
AcDbEntity
8
0
100
AcDbEllipse
10
-37.722052433579833
20
-4.0000000000001146
30
-2.2204460492503131e-15
11
-2.0969337377607644e-13
21
2.3500000000000005
31
0.0
40
0.99982371476912901
41
4.9050683453893518
42
6.0905059421747447
0
LINE
5
131
100
AcDbEntity
8
0
100
AcDbLine
10
-35.415946518737584
20
-3.5500000000001144
30
-2.2225430097452901e-15
11
-35.722405004041576
21
-3.5500000000001313
31
-2.2204025338213427e-15
0
ELLIPSE
5
132
100
AcDbEntity
8
0
100
AcDbEllipse
10
-37.722052433579833
20
-4.0000000000001146
30
-2.2204460492503131e-15
11
1.0047518372857665e-13
21
-2.0500000000000007
31
0.0
40
0.99982371476912901
41
0.22131444234772502
42
1.3494818844470466
0
LINE
5
133
100
AcDbEntity
8
0
100
AcDbLine
10
-35.722405004041576
20
-4.4500000000001343
30
-2.2204564202398094e-15
11
-35.415946518737584
21
-4.4500000000001139
31
-2.7760524019698174e-15
0
ELLIPSE
5
134
100
AcDbEntity
8
0
100
AcDbEllipse
10
-37.722052433579833
20
-4.0000000000001146
30
-2.2204460492503131e-15
11
3.6894098887074723e-13
21
-2.3500000000000005
31
0.0
40
0.99982371476912912
41
0.19267936500459173
42
1.378116961789988
0
LINE
5
135
100
AcDbEntity
8
0
100
AcDbLine
10
-37.272131761933728
20
-6.3065125189342748
30
-2.2207677849835266e-15
11
-37.272131761933764
21
-6.0000000000001226
31
-2.2205620680974572e-15
0
ELLIPSE
5
136
100
AcDbEntity
8
0
100
AcDbEllipse
10
-37.722052433579833
20
3.4999999999998863
30
-1.1102230246251565e-15
11
-5.1736392947532285e-13
21
2.0500000000000007
31
0.0
40
0.99982371476912857
41
4.9337034227322203
42
6.0618708648315449
0
LINE
5
137
100
AcDbEntity
8
0
100
AcDbLine
10
-37.272131761933743
20
5.4999999999998899
30
-1.1100995482791288e-15
11
-37.272131761933728
21
5.8065125189340483
31
-5.5511151231257827e-16
0
ELLIPSE
5
138
100
AcDbEntity
8
0
100
AcDbEllipse
10
-37.722052433579833
20
3.4999999999998863
30
-1.1102230246251565e-15
11
-2.0969337377607644e-13
21
2.3500000000000005
31
0.0
40
0.99982371476912901
41
4.9050683453893527
42
6.0905059421747483
0
LINE
5
139
100
AcDbEntity
8
0
100
AcDbLine
10
-35.415946518737584
20
3.9499999999998869
30
-1.1123199851201334e-15
11
-35.722405004041576
21
3.9499999999998696
31
-1.1101795091961864e-15
0
ELLIPSE
5
140
100
AcDbEntity
8
0
100
AcDbEllipse
10
-37.722052433579833
20
3.4999999999998863
30
-1.1102230246251565e-15
11
1.0047518372857665e-13
21
-2.0500000000000007
31
0.0
40
0.99982371476912901
41
0.22131444234772502
42
1.3494818844470471
0
LINE
5
141
100
AcDbEntity
8
0
100
AcDbLine
10
-35.722405004041576
20
3.0499999999998666
30
-1.1102333956146529e-15
11
-35.415946518737584
21
3.0499999999998879
31
-1.1107178650320822e-15
0
ELLIPSE
5
142
100
AcDbEntity
8
0
100
AcDbEllipse
10
-37.722052433579833
20
3.4999999999998863
30
-1.1102230246251565e-15
11
3.6894098887074723e-13
21
-2.3500000000000005
31
0.0
40
0.99982371476912912
41
0.19267936500459165
42
1.3781169617899882
0
LINE
5
143
100
AcDbEntity
8
0
100
AcDbLine
10
-37.272131761933728
20
1.1934874810657254
30
-1.1105447603583705e-15
11
-37.272131761933764
21
1.4999999999998781
31
-1.1103390434723006e-15
0
LINE
5
144
100
AcDbEntity
8
0
100
AcDbLine
10
-38.171973105225945
20
13.306512518934046
30
1.1102230246251565e-15
11
-38.171973105225952
21
12.999999999999885
31
1.1102230246251565e-15
0
ELLIPSE
5
145
100
AcDbEntity
8
0
100
AcDbEllipse
10
-37.722052433579833
20
10.999999999999886
30
5.5511151231257827e-16
11
7.140121827120538e-14
21
2.0500000000000003
31
0.0
40
0.99982371476912868
41
0.22131444234782724
42
1.3494818844471408
0
LINE
5
146
100
AcDbEntity
8
0
100
AcDbLine
10
-39.72169986311809
20
11.449999999999886
30
5.5512188330206751e-16
11
-40.028158348422096
21
11.449999999999886
31
5.556063527195063e-16
0
ELLIPSE
5
147
100
AcDbEntity
8
0
100
AcDbEllipse
10
-37.722052433579833
20
10.999999999999886
30
5.5511151231257827e-16
11
2.976785484776201e-13
21
2.3500000000000005
31
0.0
40
0.9998237147691289
41
0.19267936500487928
42
1.3781169617902733
0
ELLIPSE
5
148
100
AcDbEntity
8
0
100
AcDbEllipse
10
-37.722052433579833
20
10.999999999999886
30
5.5511151231257827e-16
11
5.4282967010266248e-13
21
-2.0500000000000003
31
0.0
40
0.99982371476912868
41
4.9337034227322167
42
6.0618708648315156
0
LINE
5
149
100
AcDbEntity
8
0
100
AcDbLine
10
-38.171973105225973
20
8.9999999999998934
30
5.549880359665488e-16
11
-38.171973105225952
21
8.6934874810657305
31
-2.311115933264683e-32
0
ELLIPSE
5
150
100
AcDbEntity
8
0
100
AcDbEllipse
10
-37.722052433579833
20
10.999999999999886
30
5.5511151231257827e-16
11
8.0144224590128488e-14
21
-2.3500000000000005
31
0.0
40
0.99982371476912901
41
4.9050683453894068
42
6.0905059421747971
0
LINE
5
151
100
AcDbEntity
8
0
100
AcDbLine
10
-40.028158348422089
20
10.549999999999887
30
5.5720847280755686e-16
11
-39.72169986311809
21
10.549999999999887
31
5.5506799688360512e-16
0
LINE
5
152
100
AcDbEntity
8
0
100
AcDbLine
10
-37.272131761933736
20
8.6934874810657288
30
0
11
-37.272131761933764
21
8.9999999999998828
31
0
0
ELLIPSE
5
153
100
AcDbEntity
8
0
100
AcDbEllipse
10
-37.722052433579833
20
10.999999999999886
30
5.5511151231257827e-16
11
1.0103029524088925e-13
21
-2.0500000000000012
31
0.0
40
0.9998237147691289
41
0.22131444234772243
42
1.3494818844470451
0
LINE
5
154
100
AcDbEntity
8
0
100
AcDbLine
10
-35.722405004041576
20
10.549999999999864
30
5.5510114132308203e-16
11
-35.415946518737584
21
10.549999999999887
31
-4.9484040692572545e-19
0
ELLIPSE
5
155
100
AcDbEntity
8
0
100
AcDbEllipse
10
-37.722052433579833
20
10.999999999999886
30
5.5511151231257827e-16
11
3.6894098887074723e-13
21
-2.3500000000000005
31
0.0
40
0.99982371476912912
41
0.19267936500459021
42
1.3781169617899871
0
ELLIPSE
5
156
100
AcDbEntity
8
0
100
AcDbEllipse
10
-37.722052433579833
20
10.999999999999886
30
5.5511151231257827e-16
11
-5.1715576265820563e-13
21
2.0499999999999998
31
0.0
40
0.99982371476912901
41
4.9337034227322185
42
6.0618708648315476
0
LINE
5
157
100
AcDbEntity
8
0
100
AcDbLine
10
-37.272131761933736
20
12.999999999999885
30
5.5523498865860567e-16
11
-37.272131761933736
21
13.306512518934046
31
5.5511151231257827e-16
0
ELLIPSE
5
158
100
AcDbEntity
8
0
100
AcDbEllipse
10
-37.722052433579833
20
10.999999999999886
30
5.5511151231257827e-16
11
-2.0969337377607644e-13
21
2.3500000000000005
31
0.0
40
0.99982371476912901
41
4.9050683453893527
42
6.0905059421747501
0
LINE
5
159
100
AcDbEntity
8
0
100
AcDbLine
10
-35.415946518737584
20
11.449999999999886
30
5.5301455181760135e-16
11
-35.722405004041576
21
11.449999999999864
31
5.5515502774154866e-16
0
LINE
5
160
100
AcDbEntity
8
0
100
AcDbLine
10
-40.028158348422096
20
3.0499999999998866
30
-5.5511151231257827e-16
11
-39.721699863118104
21
3.0499999999998888
31
-5.556063527195063e-16
0
ELLIPSE
5
161
100
AcDbEntity
8
0
100
AcDbEllipse
10
-37.722052433579833
20
3.4999999999998863
30
-1.1102230246251565e-15
11
-4.9599213625128868e-13
21
-2.0500000000000003
31
0.0
40
0.9998237147691289
41
4.9337034227327203
42
6.0618708648320183
0
LINE
5
162
100
AcDbEntity
8
0
100
AcDbLine
10
-38.171973105225973
20
1.4999999999998934
30
-1.1103465009711858e-15
11
-38.171973105225952
21
1.1934874810657277
31
-1.1102230246251565e-15
0
ELLIPSE
5
163
100
AcDbEntity
8
0
100
AcDbEllipse
10
-37.722052433579833
20
3.4999999999998863
30
-1.1102230246251565e-15
11
8.0144224590128488e-14
21
-2.3500000000000005
31
0.0
40
0.99982371476912901
41
4.9050683453894059
42
6.0905059421747971
0
LINE
5
164
100
AcDbEntity
8
0
100
AcDbLine
10
-38.171973105225945
20
5.8065125189340474
30
-5.5511151231257827e-16
11
-38.171973105225952
21
5.4999999999998863
31
-5.5511151231257827e-16
0
ELLIPSE
5
165
100
AcDbEntity
8
0
100
AcDbEllipse
10
-37.722052433579833
20
3.4999999999998863
30
-1.1102230246251565e-15
11
7.0776717819853729e-14
21
2.0500000000000003
31
0.0
40
0.9998237147691289
41
0.22131444234783396
42
1.3494818844471408
0
LINE
5
166
100
AcDbEntity
8
0
100
AcDbLine
10
-39.721699863118097
20
3.9499999999998883
30
-1.1102126536356675e-15
11
-40.028158348422096
21
3.9499999999998852
31
-5.5461667190565024e-16
0
ELLIPSE
5
167
100
AcDbEntity
8
0
100
AcDbEllipse
10
-37.722052433579833
20
3.4999999999998863
30
-1.1102230246251565e-15
11
2.976785484776201e-13
21
2.3500000000000005
31
0.0
40
0.9998237147691289
41
0.19267936500487937
42
1.3781169617902731
0
LINE
5
168
100
AcDbEntity
8
0
100
AcDbLine
10
-40.028158348422096
20
-4.4500000000001148
30
-2.2204460492503131e-15
11
-39.721699863118104
21
-4.4500000000001121
31
-2.2209408896572411e-15
0
ELLIPSE
5
169
100
AcDbEntity
8
0
100
AcDbEllipse
10
-37.722052433579833
20
-4.0000000000001146
30
-2.2204460492503131e-15
11
-4.9599213625128868e-13
21
-2.0500000000000003
31
0.0
40
0.9998237147691289
41
4.9337034227327194
42
6.0618708648320183
0
LINE
5
170
100
AcDbEntity
8
0
100
AcDbLine
10
-38.171973105225973
20
-6.0000000000001075
30
-2.2205695255963431e-15
11
-38.171973105225952
21
-6.306512518934273
31
-2.7755575615628914e-15
0
ELLIPSE
5
171
100
AcDbEntity
8
0
100
AcDbEllipse
10
-37.722052433579833
20
-4.0000000000001146
30
-2.2204460492503131e-15
11
8.0144224590128488e-14
21
-2.3500000000000005
31
0.0
40
0.99982371476912901
41
4.9050683453894068
42
6.0905059421747936
0
LINE
5
172
100
AcDbEntity
8
0
100
AcDbLine
10
-38.171973105225945
20
-1.6934874810659561
30
-1.6653345369377348e-15
11
-38.171973105225952
21
-2.000000000000115
31
-1.6653345369377348e-15
0
ELLIPSE
5
173
100
AcDbEntity
8
0
100
AcDbEllipse
10
-37.722052433579833
20
-4.0000000000001146
30
-2.2204460492503131e-15
11
7.0776717819853729e-14
21
2.0500000000000003
31
0.0
40
0.9998237147691289
41
0.2213144423478339
42
1.3494818844471397
0
LINE
5
174
100
AcDbEntity
8
0
100
AcDbLine
10
-39.721699863118097
20
-3.5500000000001131
30
-2.2204356782608242e-15
11
-40.028158348422096
21
-3.5500000000001157
31
-2.219951208843385e-15
0
ELLIPSE
5
175
100
AcDbEntity
8
0
100
AcDbEllipse
10
-37.722052433579833
20
-4.0000000000001146
30
-2.2204460492503131e-15
11
2.976785484776201e-13
21
2.3500000000000005
31
0.0
40
0.9998237147691289
41
0.19267936500487601
42
1.378116961790272
0
LINE
5
176
100
AcDbEntity
8
0
100
AcDbLine
10
-40.028158348422096
20
-11.950000000000118
30
1.1102230246251565e-15
11
-39.721699863118097
21
-11.950000000000118
31
1.1097281842182271e-15
0
ELLIPSE
5
177
100
AcDbEntity
8
0
100
AcDbEllipse
10
-37.722052433579833
20
-11.500000000000119
30
5.5511151231257827e-16
11
5.4498072721287372e-13
21
-2.0500000000000007
31
0.0
40
0.99982371476912857
41
4.933703422732215
42
6.0618708648315156
0
LINE
5
178
100
AcDbEntity
8
0
100
AcDbLine
10
-38.171973105225973
20
-13.500000000000112
30
5.549880359665483e-16
11
-38.171973105225952
21
-13.806512518934277
31
5.5511151231257827e-16
0
ELLIPSE
5
179
100
AcDbEntity
8
0
100
AcDbEllipse
10
-37.722052433579833
20
-11.500000000000119
30
5.5511151231257827e-16
11
8.0144224590128488e-14
21
-2.3500000000000005
31
0.0
40
0.99982371476912901
41
4.9050683453894068
42
6.0905059421747971
0
LINE
5
180
100
AcDbEntity
8
0
100
AcDbLine
10
-38.171973105225945
20
-9.1934874810659579
30
-3.3306690738754696e-15
11
-38.171973105225952
21
-9.500000000000119
31
-3.3306690738754696e-15
0
ELLIPSE
5
181
100
AcDbEntity
8
0
100
AcDbEllipse
10
-37.722052433579833
20
-11.500000000000119
30
5.5511151231257827e-16
11
-1.4592493879916901e-13
21
2.0500000000000003
31
0.0
40
0.99982371476912868
41
0.22131444234772452
42
1.3494818844470313
0
LINE
5
182
100
AcDbEntity
8
0
100
AcDbLine
10
-39.72169986311809
20
-11.050000000000114
30
5.5512188330206751e-16
11
-40.028158348422096
21
-11.05000000000012
31
1.1107178650320852e-15
0
ELLIPSE
5
183
100
AcDbEntity
8
0
100
AcDbEllipse
10
-37.722052433579833
20
-11.500000000000119
30
5.5511151231257827e-16
11
2.976785484776201e-13
21
2.3500000000000005
31
0.0
40
0.9998237147691289
41
0.19267936500487554
42
1.3781169617902709
0
LINE
5
184
100
AcDbEntity
8
0
100
AcDbLine
10
39.432091217509964
20
-11.575000000000111
30
-2.7755575615628914e-15
11
38.969384604134376
21
-11.575000000000111
31
-2.7750427974417238e-15
0
ELLIPSE
5
185
100
AcDbEntity
8
0
100
AcDbEllipse
10
37.620676275366122
20
-11.950000000000108
30
-2.7755575615628914e-15
11
-9.4022012397942945e-14
21
1.4000000000000008
31
0.0
40
0.99990082808524217
41
4.9835571920781803
42
6.012017095485958
0
LINE
5
186
100
AcDbEntity
8
0
100
AcDbLine
10
37.995639085898091
20
-10.601157903978486
30
-2.7760070154729825e-15
11
37.995639085898091
21
-10.138405398550876
31
-2.7755575615628914e-15
0
ELLIPSE
5
187
100
AcDbEntity
8
0
100
AcDbEllipse
10
37.620676275366122
20
-11.950000000000108
30
-2.7755575615628914e-15
11
-5.1569859493838511e-13
21
1.8500000000000005
31
0.0
40
0.99990082808524239
41
4.9165061160961852
42
6.0790681714675303
0
ELLIPSE
5
188
100
AcDbEntity
8
0
100
AcDbEllipse
10
37.620676275366122
20
-11.950000000000108
30
-2.7755575615628914e-15
11
4.1917858073503572e-13
21
-1.4000000000000001
31
0.0
40
0.99990082808524239
41
4.9835571920779493
42
6.0120170954857235
0
LINE
5
189
100
AcDbEntity
8
0
100
AcDbLine
10
37.245713464834161
20
-13.29884209602173
30
-2.7751081076528014e-15
11
37.245713464834161
21
-13.761594601449342
31
-2.7755575615628914e-15
0
ELLIPSE
5
190
100
AcDbEntity
8
0
100
AcDbEllipse
10
37.620676275366122
20
-11.950000000000108
30
-2.7755575615628914e-15
11
5.753036935729483e-13
21
-1.8500000000000005
31
0.0
40
0.99990082808524228
41
4.916506116096155
42
6.0790681714675028
0
LINE
5
191
100
AcDbEntity
8
0
100
AcDbLine
10
35.809261333222281
20
-12.325000000000106
30
-2.7738745442834128e-15
11
36.271967946597869
21
-12.325000000000108
31
-2.775449467342811e-15
0
LINE
5
192
100
AcDbEntity
8
0
100
AcDbLine
10
39.432091217509956
20
-6.6750000000001037
30
-2.2204460492503131e-15
11
38.969384604134369
21
-6.6750000000001037
31
-2.2199312851291459e-15
0
ELLIPSE
5
193
100
AcDbEntity
8
0
100
AcDbEllipse
10
37.620676275366122
20
-7.050000000000102
30
-1.6653345369377348e-15
11
-9.4022012397942945e-14
21
1.4000000000000008
31
0.0
40
0.99990082808524217
41
4.9835571920781829
42
6.0120170954859553
0
LINE
5
194
100
AcDbEntity
8
0
100
AcDbLine
10
37.995639085898091
20
-5.7011579039784799
30
-1.6657839908478256e-15
11
37.995639085898091
21
-5.238405398550869
31
-1.6653345369377348e-15
0
ELLIPSE
5
195
100
AcDbEntity
8
0
100
AcDbEllipse
10
37.620676275366122
20
-7.050000000000102
30
-1.6653345369377348e-15
11
-5.1569859493838511e-13
21
1.8500000000000005
31
0.0
40
0.99990082808524239
41
4.9165061160961869
42
6.0790681714675312
0
ELLIPSE
5
196
100
AcDbEntity
8
0
100
AcDbEllipse
10
37.620676275366122
20
-7.050000000000102
30
-1.6653345369377348e-15
11
4.1917858073503572e-13
21
-1.4000000000000001
31
0.0
40
0.99990082808524239
41
4.9835571920779511
42
6.0120170954857191
0
LINE
5
197
100
AcDbEntity
8
0
100
AcDbLine
10
37.245713464834154
20
-8.3988420960217223
30
-1.6648850830276442e-15
11
37.245713464834161
21
-8.8615946014493367
31
-2.2204460492503131e-15
0
ELLIPSE
5
198
100
AcDbEntity
8
0
100
AcDbEllipse
10
37.620676275366122
20
-7.050000000000102
30
-1.6653345369377348e-15
11
5.753036935729483e-13
21
-1.8500000000000005
31
0.0
40
0.99990082808524228
41
4.916506116096155
42
6.0790681714675019
0
LINE
5
199
100
AcDbEntity
8
0
100
AcDbLine
10
35.809261333222281
20
-7.4250000000001002
30
-1.6636515196582564e-15
11
36.271967946597869
21
-7.425000000000102
31
-1.6652264427176541e-15
0
LINE
5
200
100
AcDbEntity
8
0
100
AcDbLine
10
39.432091217509956
20
-1.7750000000001025
30
-1.1102230246251565e-15
11
38.969384604134369
21
-1.7750000000001025
31
-1.1097082605039894e-15
0
ELLIPSE
5
201
100
AcDbEntity
8
0
100
AcDbEllipse
10
37.620676275366122
20
-2.1500000000001016
30
-1.1102230246251565e-15
11
-4.1806835771041051e-13
21
1.4000000000000001
31
0.0
40
0.99990082808524239
41
4.9835571920779538
42
6.0120170954857297
0
LINE
5
202
100
AcDbEntity
8
0
100
AcDbLine
10
37.995639085898084
20
-0.80115790397848041
30
-1.1106724785352471e-15
11
37.995639085898091
21
-0.33840539855086782
31
-5.5511151231257827e-16
0
ELLIPSE
5
203
100
AcDbEntity
8
0
100
AcDbEllipse
10
37.620676275366122
20
-2.1500000000001016
30
-1.1102230246251565e-15
11
-4.5796699765787717e-13
21
1.8500000000000005
31
0.0
40
0.9999008280852425
41
4.9165061160962198
42
6.0790681714675641
0
ELLIPSE
5
204
100
AcDbEntity
8
0
100
AcDbEllipse
10
37.620676275366122
20
-2.1500000000001016
30
-1.1102230246251565e-15
11
4.1945613649119196e-13
21
-1.4000000000000004
31
0.0
40
0.9999008280852425
41
4.983557192077952
42
6.0120170954857262
0
LINE
5
205
100
AcDbEntity
8
0
100
AcDbLine
10
37.245713464834154
20
-3.4988420960217228
30
-1.1097735707150662e-15
11
37.245713464834154
21
-3.9615946014493355
31
-1.1102230246251565e-15
0
ELLIPSE
5
206
100
AcDbEntity
8
0
100
AcDbEllipse
10
37.620676275366122
20
-2.1500000000001016
30
-1.1102230246251565e-15
11
8.9185603346919606e-13
21
-1.850000000000001
31
0.0
40
0.99990082808524239
41
4.9165061160959835
42
6.0790681714673243
0
LINE
5
207
100
AcDbEntity
8
0
100
AcDbLine
10
35.809261333222281
20
-2.5250000000001012
30
-1.108540007345678e-15
11
36.271967946597869
21
-2.5250000000001025
31
-1.1101149304050758e-15
0
LINE
5
208
100
AcDbEntity
8
0
100
AcDbLine
10
39.432091217509956
20
3.1249999999998983
30
0
11
38.969384604134369
21
3.1249999999998983
31
5.1476412116721273e-19
0
ELLIPSE
5
209
100
AcDbEntity
8
0
100
AcDbEllipse
10
37.620676275366122
20
2.7499999999998992
30
0
11
-4.1806835771041051e-13
21
1.4000000000000001
31
0.0
40
0.99990082808524239
41
4.9835571920779538
42
6.0120170954857333
0
LINE
5
210
100
AcDbEntity
8
0
100
AcDbLine
10
37.995639085898084
20
4.0988420960215208
30
-4.4945391009068778e-19
11
37.995639085898091
21
4.5615946014491326
31
0
0
ELLIPSE
5
211
100
AcDbEntity
8
0
100
AcDbEllipse
10
37.620676275366122
20
2.7499999999998992
30
0
11
-4.5796699765787717e-13
21
1.8500000000000005
31
0.0
40
0.9999008280852425
41
4.9165061160962198
42
6.0790681714675605
0
ELLIPSE
5
212
100
AcDbEntity
8
0
100
AcDbEllipse
10
37.620676275366122
20
2.7499999999998992
30
0
11
4.1945613649119196e-13
21
-1.4000000000000004
31
0.0
40
0.9999008280852425
41
4.9835571920779529
42
6.0120170954857262
0
LINE
5
213
100
AcDbEntity
8
0
100
AcDbLine
10
37.245713464834154
20
1.4011579039782776
30
4.4945391009040418e-19
11
37.245713464834154
21
0.93840539855066529
31
-5.5511151231257827e-16
0
ELLIPSE
5
214
100
AcDbEntity
8
0
100
AcDbEllipse
10
37.620676275366122
20
2.7499999999998992
30
0
11
8.9185603346919606e-13
21
-1.850000000000001
31
0.0
40
0.99990082808524239
41
4.9165061160959826
42
6.0790681714673243
0
LINE
5
215
100
AcDbEntity
8
0
100
AcDbLine
10
35.809261333222281
20
2.3749999999998992
30
1.6830172794786387e-18
11
36.271967946597869
21
2.3749999999998979
31
1.0809422008062749e-19
0
LINE
5
216
100
AcDbEntity
8
0
100
AcDbLine
10
39.432091217509956
20
8.0249999999998991
30
5.5511151231257827e-16
11
38.969384604134369
21
8.0249999999998991
31
5.5562627643374552e-16
0
ELLIPSE
5
217
100
AcDbEntity
8
0
100
AcDbEllipse
10
37.620676275366122
20
7.6499999999999009
30
5.5511151231257827e-16
11
-4.1806835771041051e-13
21
1.4000000000000001
31
0.0
40
0.99990082808524239
41
4.983557192077952
42
6.0120170954857297
0
LINE
5
218
100
AcDbEntity
8
0
100
AcDbLine
10
37.995639085898084
20
8.998842096021523
30
5.5466205840248759e-16
11
37.995639085898091
21
9.4615946014491374
31
1.1102230246251565e-15
0
ELLIPSE
5
219
100
AcDbEntity
8
0
100
AcDbEllipse
10
37.620676275366122
20
7.6499999999999009
30
5.5511151231257827e-16
11
-4.5796699765787717e-13
21
1.8500000000000005
31
0.0
40
0.9999008280852425
41
4.9165061160962207
42
6.0790681714675641
0
ELLIPSE
5
220
100
AcDbEntity
8
0
100
AcDbEllipse
10
37.620676275366122
20
7.6499999999999009
30
5.5511151231257827e-16
11
4.1806835771041051e-13
21
-1.4000000000000001
31
0.0
40
0.99990082808524239
41
4.9835571920779529
42
6.012017095485727
0
LINE
5
221
100
AcDbEntity
8
0
100
AcDbLine
10
37.245713464834161
20
6.3011579039782797
30
5.5556096622266895e-16
11
37.245713464834154
21
5.8384053985506679
31
5.5511151231257827e-16
0
ELLIPSE
5
222
100
AcDbEntity
8
0
100
AcDbEllipse
10
37.620676275366122
20
7.6499999999999009
30
5.5511151231257827e-16
11
8.9164786665207905e-13
21
-1.850000000000001
31
0.0
40
0.99990082808524239
41
4.9165061160959826
42
6.0790681714673243
0
LINE
5
223
100
AcDbEntity
8
0
100
AcDbLine
10
35.809261333222281
20
7.2749999999999027
30
5.5679452959205695e-16
11
36.271967946597869
21
7.2749999999999018
31
5.5521960653265917e-16
0
ELLIPSE
5
224
100
AcDbEntity
8
0
100
AcDbEllipse
10
37.620676275366122
20
12.549999999999899
30
-2.7755575615628914e-15
11
-4.9633908094648394e-13
21
-1.4000000000000004
31
0.0
40
0.9999008280852425
41
0.27116821169391431
42
1.2996281151016877
0
LINE
5
225
100
AcDbEntity
8
0
100
AcDbLine
10
38.969384604134369
20
12.174999999999898
30
-2.7754129199579736e-15
11
39.432091217509956
21
12.174999999999903
31
-2.7760723256840577e-15
0
ELLIPSE
5
226
100
AcDbEntity
8
0
100
AcDbEllipse
10
37.620676275366122
20
12.549999999999899
30
-2.7755575615628914e-15
11
8.5764728652293343e-14
21
-1.8500000000000003
31
0.0
40
0.99990082808524239
41
0.20411713571173221
42
1.3666791910830733
0
LINE
5
227
100
AcDbEntity
8
0
100
AcDbLine
10
37.995639085898091
20
10.738405398550668
30
-2.7761657319747605e-15
11
37.995639085898084
21
11.201157903978276
31
-2.7750979468865006e-15
0
ELLIPSE
5
228
100
AcDbEntity
8
0
100
AcDbEllipse
10
37.620676275366122
20
12.549999999999899
30
-2.7755575615628914e-15
11
-7.9818096576644868e-13
21
1.4000000000000008
31
0.0
40
0.99990082808524217
41
0.27116821169298949
42
1.2996281151007627
0
LINE
5
229
100
AcDbEntity
8
0
100
AcDbLine
10
36.271967946597869
20
12.924999999999899
30
-2.7757022031678091e-15
11
35.809261333222274
21
12.924999999999899
31
-2.7750427974417238e-15
0
ELLIPSE
5
230
100
AcDbEntity
8
0
100
AcDbEllipse
10
37.620676275366122
20
12.549999999999899
30
-2.7755575615628914e-15
11
-8.2364670639378813e-14
21
1.8500000000000005
31
0.0
40
0.99990082808524228
41
0.2041171357117324
42
1.3666791910830751
0
LINE
5
231
100
AcDbEntity
8
0
100
AcDbLine
10
37.245713464834154
20
14.361594601449131
30
-2.7749493911510222e-15
11
37.245713464834154
21
13.898842096021522
31
-2.7760171762392822e-15
0
LINE
5
232
100
AcDbEntity
8
0
100
AcDbLine
10
35.809261333222281
20
12.174999999999898
30
-2.7755575615628914e-15
11
36.271967946597869
21
12.174999999999901
31
-2.7760723256840581e-15
0
ELLIPSE
5
233
100
AcDbEntity
8
0
100
AcDbEllipse
10
37.620676275366122
20
12.549999999999899
30
-2.7755575615628914e-15
11
-1.7305601396344628e-13
21
-1.400000000000001
31
0.0
40
0.99990082808524239
41
4.9835571920783739
42
6.0120170954861534
0
LINE
5
234
100
AcDbEntity
8
0
100
AcDbLine
10
37.245713464834154
20
11.201157903978277
30
-2.7751081076528002e-15
11
37.245713464834154
21
10.738405398550668
31
-2.7755575615628914e-15
0
ELLIPSE
5
235
100
AcDbEntity
8
0
100
AcDbEllipse
10
37.620676275366122
20
12.549999999999899
30
-2.7755575615628914e-15
11
5.7454041524351851e-13
21
-1.8500000000000003
31
0.0
40
0.99990082808524239
41
4.9165061160961567
42
6.0790681714674983
0
LINE
5
236
100
AcDbEntity
8
0
100
AcDbLine
10
39.432091217509956
20
12.924999999999899
30
-2.7755575615628914e-15
11
38.969384604134369
21
12.924999999999899
31
-2.7750427974417238e-15
0
ELLIPSE
5
237
100
AcDbEntity
8
0
100
AcDbEllipse
10
37.620676275366122
20
12.549999999999899
30
-2.7755575615628914e-15
11
1.6951717807245364e-13
21
1.4000000000000001
31
0.0
40
0.99990082808524239
41
4.9835571920783739
42
6.0120170954861436
0
LINE
5
238
100
AcDbEntity
8
0
100
AcDbLine
10
37.995639085898091
20
13.898842096021522
30
-2.7760070154729813e-15
11
37.995639085898077
21
14.361594601449134
31
-2.7755575615628914e-15
0
ELLIPSE
5
239
100
AcDbEntity
8
0
100
AcDbEllipse
10
37.620676275366122
20
12.549999999999899
30
-2.7755575615628914e-15
11
6.0465521478647588e-13
21
1.8500000000000003
31
0.0
40
0.99990082808524239
41
4.9165061160967927
42
6.0790681714681369
0
ELLIPSE
5
240
100
AcDbEntity
8
0
100
AcDbEllipse
10
37.620676275366122
20
7.6499999999999009
30
5.5511151231257827e-16
11
-1.5265566588595902e-13
21
1.400000000000001
31
0.0
40
0.99990082808524217
41
0.27116821169345068
42
1.2996281151012257
0
LINE
5
241
100
AcDbEntity
8
0
100
AcDbLine
10
36.271967946597869
20
8.0249999999999009
30
5.5496687070766049e-16
11
35.809261333222281
21
8.0249999999998991
31
1.1107377887463237e-15
0
ELLIPSE
5
242
100
AcDbEntity
8
0
100
AcDbEllipse
10
37.620676275366122
20
7.6499999999999009
30
5.5511151231257827e-16
11
2.9060087669563472e-13
21
1.8500000000000005
31
0.0
40
0.99990082808524239
41
0.20411713571193549
42
1.3666791910832783
0
LINE
5
243
100
AcDbEntity
8
0
100
AcDbLine
10
37.245713464834154
20
9.4615946014491321
30
5.5571968272444744e-16
11
37.245713464834154
21
8.998842096021523
31
5.5465189763618747e-16
0
LINE
5
244
100
AcDbEntity
8
0
100
AcDbLine
10
37.995639085898091
20
5.8384053985506688
30
5.5511151231257827e-16
11
37.995639085898091
21
6.3011579039782815
31
5.5511151231257827e-16
0
ELLIPSE
5
245
100
AcDbEntity
8
0
100
AcDbEllipse
10
37.620676275366122
20
7.6499999999999009
30
5.5511151231257827e-16
11
7.9818096576644868e-13
21
-1.4000000000000008
31
0.0
40
0.99990082808524217
41
0.27116821169299049
42
1.2996281151007654
0
LINE
5
246
100
AcDbEntity
8
0
100
AcDbLine
10
38.969384604134369
20
7.2749999999999009
30
5.5525615391749605e-16
11
39.432091217509956
21
7.2749999999999009
31
5.5459674819141082e-16
0
ELLIPSE
5
247
100
AcDbEntity
8
0
100
AcDbEllipse
10
37.620676275366122
20
7.6499999999999009
30
5.5511151231257827e-16
11
-2.9372337895239298e-13
21
-1.8500000000000003
31
0.0
40
0.99990082808524239
41
0.20411713571193549
42
1.3666791910832763
0
ELLIPSE
5
248
100
AcDbEntity
8
0
100
AcDbEllipse
10
37.620676275366122
20
2.7499999999998992
30
0
11
-1.5265566588595902e-13
21
1.400000000000001
31
0.0
40
0.99990082808524217
41
0.27116821169345057
42
1.2996281151012257
0
LINE
5
249
100
AcDbEntity
8
0
100
AcDbLine
10
36.271967946597869
20
3.1249999999998979
30
-1.4464160491778411e-19
11
35.809261333222281
21
3.1249999999998974
31
5.1476412116721273e-19
0
ELLIPSE
5
250
100
AcDbEntity
8
0
100
AcDbEllipse
10
37.620676275366122
20
2.7499999999998992
30
0
11
2.9060087669563472e-13
21
1.8500000000000005
31
0.0
40
0.99990082808524239
41
0.20411713571193554
42
1.3666791910832785
0
LINE
5
251
100
AcDbEntity
8
0
100
AcDbLine
10
37.245713464834154
20
4.56159460144913
30
6.0817041186919934e-19
11
37.245713464834154
21
4.0988420960215208
31
-4.5961467639074054e-19
0
LINE
5
252
100
AcDbEntity
8
0
100
AcDbLine
10
37.995639085898091
20
0.93840539855066529
30
-5.5511151231257827e-16
11
37.995639085898091
21
1.401157903978278
31
-5.5511151231257827e-16
0
ELLIPSE
5
253
100
AcDbEntity
8
0
100
AcDbEllipse
10
37.620676275366122
20
2.7499999999998992
30
0
11
-5.467848396278896e-13
21
-1.4000000000000001
31
0.0
40
0.9999008280852425
41
0.27116821169395205
42
1.2996281151017242
0
LINE
5
254
100
AcDbEntity
8
0
100
AcDbLine
10
38.969384604134369
20
2.3749999999998979
30
1.4464160491790403e-19
11
39.432091217509956
21
2.3749999999998983
31
-5.5562627643374552e-16
0
ELLIPSE
5
255
100
AcDbEntity
8
0
100
AcDbEllipse
10
37.620676275366122
20
2.7499999999998992
30
0
11
-2.9372337895239298e-13
21
-1.8500000000000003
31
0.0
40
0.99990082808524239
41
0.20411713571193879
42
1.3666791910832781
0
ELLIPSE
5
256
100
AcDbEntity
8
0
100
AcDbEllipse
10
37.620676275366122
20
-2.1500000000001016
30
-1.1102230246251565e-15
11
-1.5265566588595902e-13
21
1.400000000000001
31
0.0
40
0.99990082808524217
41
0.27116821169345073
42
1.2996281151012257
0
LINE
5
257
100
AcDbEntity
8
0
100
AcDbLine
10
36.271967946597869
20
-1.7750000000001025
30
-1.1103676662300743e-15
11
35.809261333222281
21
-1.7750000000001032
31
-5.5459674819141102e-16
0
ELLIPSE
5
258
100
AcDbEntity
8
0
100
AcDbEllipse
10
37.620676275366122
20
-2.1500000000001016
30
-1.1102230246251565e-15
11
2.9060087669563472e-13
21
1.8500000000000005
31
0.0
40
0.99990082808524239
41
0.20411713571193554
42
1.3666791910832787
0
LINE
5
259
100
AcDbEntity
8
0
100
AcDbLine
10
37.245713464834154
20
-0.33840539855086998
30
-1.1096148542132874e-15
11
37.245713464834154
21
-0.80115790397847986
31
-1.1106826393015471e-15
0
LINE
5
260
100
AcDbEntity
8
0
100
AcDbLine
10
37.995639085898091
20
-3.9615946014493355
30
-1.1102230246251565e-15
11
37.995639085898091
21
-3.4988420960217228
31
-1.1102230246251565e-15
0
ELLIPSE
5
261
100
AcDbEntity
8
0
100
AcDbEllipse
10
37.620676275366122
20
-2.1500000000001016
30
-1.1102230246251565e-15
11
-5.467848396278896e-13
21
-1.4000000000000001
31
0.0
40
0.9999008280852425
41
0.27116821169395544
42
1.2996281151017246
0
LINE
5
262
100
AcDbEntity
8
0
100
AcDbLine
10
38.969384604134369
20
-2.5250000000001034
30
-1.1100783830202386e-15
11
39.432091217509956
21
-2.5250000000001021
31
-1.1107377887463237e-15
0
ELLIPSE
5
263
100
AcDbEntity
8
0
100
AcDbEllipse
10
37.620676275366122
20
-2.1500000000001016
30
-1.1102230246251565e-15
11
-2.9372337895239298e-13
21
-1.8500000000000003
31
0.0
40
0.99990082808524239
41
0.20411713571193887
42
1.3666791910832778
0
ELLIPSE
5
264
100
AcDbEntity
8
0
100
AcDbEllipse
10
37.620676275366122
20
-7.050000000000102
30
-1.6653345369377348e-15
11
-1.5341894421538882e-13
21
1.4000000000000008
31
0.0
40
0.99990082808524217
41
0.27116821169345751
42
1.2996281151012274
0
LINE
5
265
100
AcDbEntity
8
0
100
AcDbLine
10
36.271967946597869
20
-6.6750000000001037
30
-1.6654791785426528e-15
11
35.809261333222281
21
-6.6750000000001055
31
-1.6648197728165677e-15
0
ELLIPSE
5
266
100
AcDbEntity
8
0
100
AcDbEllipse
10
37.620676275366122
20
-7.050000000000102
30
-1.6653345369377348e-15
11
2.2988555503644653e-13
21
1.8500000000000005
31
0.0
40
0.99990082808524228
41
0.20411713571190274
42
1.3666791910832465
0
LINE
5
267
100
AcDbEntity
8
0
100
AcDbLine
10
37.245713464834154
20
-5.238405398550869
30
-1.6647263665258654e-15
11
37.245713464834154
21
-5.7011579039784799
31
-1.6657941516141256e-15
0
LINE
5
268
100
AcDbEntity
8
0
100
AcDbLine
10
37.995639085898091
20
-8.8615946014493367
30
-2.2204460492503131e-15
11
37.995639085898091
21
-8.398842096021724
31
-2.2204460492503131e-15
0
ELLIPSE
5
269
100
AcDbEntity
8
0
100
AcDbEllipse
10
37.620676275366122
20
-7.050000000000102
30
-1.6653345369377348e-15
11
-1.6979473382860988e-13
21
-1.3999999999999999
31
0.0
40
0.99990082808524217
41
0.27116821169368566
42
1.2996281151014568
0
LINE
5
270
100
AcDbEntity
8
0
100
AcDbLine
10
38.969384604134376
20
-7.425000000000102
30
-1.6651898953328168e-15
11
39.432091217509964
21
-7.4250000000001029
31
-2.2209608133714806e-15
0
ELLIPSE
5
271
100
AcDbEntity
8
0
100
AcDbEllipse
10
37.620676275366122
20
-7.050000000000102
30
-1.6653345369377348e-15
11
-2.9372337895239298e-13
21
-1.8500000000000003
31
0.0
40
0.99990082808524239
41
0.20411713571193521
42
1.366679191083279
0
ELLIPSE
5
272
100
AcDbEntity
8
0
100
AcDbEllipse
10
37.620676275366122
20
-11.950000000000108
30
-2.7755575615628914e-15
11
-1.5341894421538882e-13
21
1.4000000000000008
31
0.0
40
0.99990082808524217
41
0.27116821169345456
42
1.2996281151012283
0
LINE
5
273
100
AcDbEntity
8
0
100
AcDbLine
10
36.271967946597869
20
-11.575000000000111
30
-2.7757022031678095e-15
11
35.809261333222281
21
-11.575000000000111
31
-2.7750427974417238e-15
0
ELLIPSE
5
274
100
AcDbEntity
8
0
100
AcDbEllipse
10
37.620676275366122
20
-11.950000000000108
30
-2.7755575615628914e-15
11
2.2988555503644653e-13
21
1.8500000000000005
31
0.0
40
0.99990082808524228
41
0.20411713571189943
42
1.3666791910832465
0
LINE
5
275
100
AcDbEntity
8
0
100
AcDbLine
10
37.245713464834154
20
-10.138405398550876
30
-2.7749493911510218e-15
11
37.245713464834154
21
-10.601157903978486
31
-2.7760171762392822e-15
0
LINE
5
276
100
AcDbEntity
8
0
100
AcDbLine
10
37.995639085898091
20
-13.761594601449342
30
-3.3306690738754696e-15
11
37.995639085898091
21
-13.29884209602173
31
-3.3306690738754696e-15
0
ELLIPSE
5
277
100
AcDbEntity
8
0
100
AcDbEllipse
10
37.620676275366122
20
-11.950000000000108
30
-2.7755575615628914e-15
11
-1.6979473382860988e-13
21
-1.3999999999999999
31
0.0
40
0.99990082808524217
41
0.27116821169368299
42
1.2996281151014586
0
LINE
5
278
100
AcDbEntity
8
0
100
AcDbLine
10
38.969384604134376
20
-12.325000000000108
30
-2.7754129199579732e-15
11
39.432091217509964
21
-12.325000000000108
31
-2.7760723256840589e-15
0
ELLIPSE
5
279
100
AcDbEntity
8
0
100
AcDbEllipse
10
37.620676275366122
20
-11.950000000000108
30
-2.7755575615628914e-15
11
-2.9372337895239298e-13
21
-1.8500000000000003
31
0.0
40
0.99990082808524239
41
0.20411713571193532
42
1.3666791910832801
0
LWPOLYLINE
5
280
100
AcDbEntity
8
0
100
AcDbPolyline
90
4
70
1
43
0.0
10
44.800000000000139
20
17.260019646365322
10
44.800000000000146
20
-17.260019646365517
10
34.150000000000162
20
-17.257662082514834
10
34.150000000000141
20
17.257662082514635
0
CIRCLE
5
281
100
AcDbEntity
8
0
100
AcDbCircle
10
-37.722052433579833
20
10.999999999999886
30
5.5511151231257827e-16
40
2.4999999999999996
210
0
220
0
230
1
0
CIRCLE
5
282
100
AcDbEntity
8
0
100
AcDbCircle
10
-37.722052433579833
20
3.4999999999998863
30
-1.1102230246251565e-15
40
2.5000000000000018
210
0
220
0
230
1
0
CIRCLE
5
283
100
AcDbEntity
8
0
100
AcDbCircle
10
-37.722052433579833
20
-4.0000000000001146
30
-2.2204460492503131e-15
40
2.4999999999999996
210
0
220
0
230
1
0
CIRCLE
5
284
100
AcDbEntity
8
0
100
AcDbCircle
10
-37.722052433579833
20
-11.500000000000119
30
5.5511151231257827e-16
40
2.5000000000000022
210
0
220
0
230
1
0
CIRCLE
5
285
100
AcDbEntity
8
0
100
AcDbCircle
10
37.620676275366122
20
-11.950000000000108
30
-2.7755575615628914e-15
40
1.4999999999999993
210
0
220
0
230
1
0
CIRCLE
5
286
100
AcDbEntity
8
0
100
AcDbCircle
10
37.620676275366122
20
-7.050000000000102
30
-1.6653345369377348e-15
40
1.5000000000000011
210
0
220
0
230
1
0
CIRCLE
5
287
100
AcDbEntity
8
0
100
AcDbCircle
10
37.620676275366122
20
-2.1500000000001016
30
-1.1102230246251565e-15
40
1.5000000000000009
210
0
220
0
230
1
0
CIRCLE
5
288
100
AcDbEntity
8
0
100
AcDbCircle
10
37.620676275366122
20
2.7499999999998992
30
0
40
1.5000000000000009
210
0
220
0
230
1
0
CIRCLE
5
289
100
AcDbEntity
8
0
100
AcDbCircle
10
37.620676275366122
20
7.6499999999999009
30
5.5511151231257827e-16
40
1.4999999999999993
210
0
220
0
230
1
0
CIRCLE
5
290
100
AcDbEntity
8
0
100
AcDbCircle
10
37.620676275366122
20
12.549999999999899
30
-2.7755575615628914e-15
40
1.4999999999999993
210
0
220
0
230
1
0
ENDSEC
0
SECTION
2
OBJECTS
0
DICTIONARY
5
C
100
AcDbDictionary
3
ACAD_GROUP
350
D
3
ACAD_MLINESTYLE
350
17
0
DICTIONARY
5
D
100
AcDbDictionary
0
DICTIONARY
5
1A
330
C
100
AcDbDictionary
0
DICTIONARY
5
17
100
AcDbDictionary
0
ENDSEC
0
EOF
